Coordinates
version=1
nRows=9
nColumns=36
inDegrees=yes

Units are S.I. units (second, meters, Newtons, ...)
If the header above contains a line with 'inDegrees', this indicates whether rotational values are in degrees (yes) or radians (no).

endheader
time	pelvis_tilt	pelvis_list	pelvis_rotation	pelvis_tx	pelvis_ty	pelvis_tz	hip_flexion_r	hip_adduction_r	hip_rotation_r	knee_angle_r	knee_angle_r_beta	ankle_angle_r	subtalar_angle_r	mtp_angle_r	hip_flexion_l	hip_adduction_l	hip_rotation_l	knee_angle_l	knee_angle_l_beta	ankle_angle_l	subtalar_angle_l	mtp_angle_l	lumbar_extension	lumbar_bending	lumbar_rotation	arm_flex_r	arm_add_r	arm_rot_r	elbow_flex_r	pro_sup_r	arm_flex_l	arm_add_l	arm_rot_l	elbow_flex_l	pro_sup_l
     29.85000000	     -5.48218733	     -1.86363045	      2.21894268	      0.79618501	      0.99623262	      0.87248854	     -8.40562348	      2.51566771	     -6.22027067	      8.79663870	      0.15353031	     17.99824195	      2.36687435	     -7.49999987	     32.31974134	     -3.18460879	     -2.62972600	     14.66849628	      0.25601356	      5.24836141	      3.90061884	     -7.49999987	     -5.23835033	      4.38769071	      5.89157955	      8.98674713	    -13.53394512	      5.14363846	     28.81339429	     70.39176213	     -6.73738843	     -6.15860209	     -0.28038926	     13.71311536	     67.01447140
     29.86666670	     -5.52400917	     -1.30114391	      1.84627249	      0.80373688	      0.99504588	      0.86720478	     -8.49167611	      1.42715352	     -5.65544975	     10.76160410	      0.18782542	     17.90439561	      1.63227498	     -7.49999987	     32.10291013	     -2.66556597	     -2.91390088	     16.82341054	      0.29362391	      4.15234561	      3.59663882	     -7.49999987	     -4.78839449	      3.74433464	      5.87334340	      8.33480164	    -13.44505824	      5.16263085	     28.50390700	     70.37757015	     -6.81739261	     -6.13873947	     -0.29162073	     13.50512380	     67.01970115
     29.88333330	     -5.97500881	     -0.76113589	      1.13563861	      0.81026504	      0.99510939	      0.86285601	     -7.94767474	      0.36294191	     -4.19671937	     13.09186364	      0.22849613	     17.07389491	     -0.31937526	     -7.49999987	     32.22538302	     -2.32969087	     -3.37348246	     18.86687516	      0.32928909	      3.22775907	      2.93795838	     -7.49999987	     -3.67227678	      3.15267862	      6.52912135	      7.19531582	    -13.34237468	      4.54924795	     27.78381738	     69.77572068	     -6.40907828	     -6.01913575	     -0.22276723	     12.45649118	     66.70112439
     29.90000000	     -6.23891172	     -0.11927053	      0.64301829	      0.81389444	      0.99532676	      0.85967409	     -7.34097859	     -0.79313594	     -3.32936888	     15.95140772	      0.27840459	     16.40374300	     -1.63702532	     -7.49999987	     32.15718008	     -1.75199835	     -3.52911174	     20.85795295	      0.36403995	      2.63509205	      1.92716017	     -7.49999987	     -2.83183507	      2.48655867	      7.14618801	      5.84363186	    -13.16120897	      3.53003637	     27.60681009	     69.05647458	     -5.82119900	     -6.07024953	      0.55105554	     11.93132090	     66.57930583
     29.91666670	     -6.26680864	      0.53407609	     -0.02344275	      0.81445792	      0.99636071	      0.85757899	     -6.47564214	     -1.87033148	     -1.79769524	     19.60342181	      0.34214426	     15.12824597	     -3.72327336	     -7.49999987	     31.78061090	     -1.24799267	     -3.90579679	     22.74760004	      0.39702052	      2.42123416	      0.69378212	     -7.49999987	     -2.36573555	      1.86879368	      7.58274610	      5.07131670	    -12.87193236	      2.92519788	     27.06275885	     68.49393359	     -5.26252131	     -6.15138656	      0.73945843	     11.94324198	     66.23246571
     29.93333330	     -6.55152367	      1.20008102	     -0.71294090	      0.81379729	      0.99821246	      0.85610235	     -4.68240069	     -2.79752421	      0.19255185	     24.26116472	      0.42343720	     12.84867534	     -6.73085436	     -7.49999987	     31.60399670	     -0.74278780	     -4.42038160	     24.50556317	      0.42770276	      2.64200348	     -0.46194626	     -7.49999987	     -1.69387922	      1.21077736	      8.31609812	      4.35554541	    -12.54570376	      2.54656381	     26.44584018	     67.99258149	     -4.48092767	     -6.27187071	      0.85536840	     12.12832212	     65.85668689
     29.95000000	     -6.74545031	      1.85660513	     -1.23110038	      0.81382470	      1.00041400	      0.85515096	     -2.37398138	     -3.58219018	      1.96806572	     29.77282191	      0.51963377	      9.39436893	     -9.61954510	     -7.49999987	     31.17289497	     -0.14332097	     -4.81180967	     25.90646138	      0.45215305	      3.26787021	     -1.62458821	     -7.49999987	     -1.18950433	      0.56916857	      8.84720359	      3.82158747	    -12.14899698	      2.34233900	     25.97428179	     67.48659604	     -3.61146532	     -6.43437890	      0.86902954	     12.33653127	     65.48982379
     29.96666670	     -7.01227810	      2.53834880	     -1.77995392	      0.81482506	      1.00222036	      0.85437075	      0.52409310	     -4.27593102	      3.62829421	     35.76432767	      0.62420527	      5.07215206	    -11.68061345	     -7.49999987	     30.60273583	      0.43889542	     -5.32973689	     26.79580532	      0.46767503	      4.32944993	     -2.46243245	     -7.49999987	     -0.54188926	     -0.08341804	      9.22998163	      3.75776591	    -11.55656066	      2.21515881	     24.52671995	     67.15392365	     -2.59667664	     -6.61490777	      1.10764201	     12.11987570	     65.41276943
     29.98333330	     -7.26123061	      3.28389836	     -2.27554402	      0.81537071	      1.00327047	      0.85292917	      3.71958985	     -4.87448017	      5.12734457	     41.71270394	      0.72802402	     -0.22489447	    -13.76889885	     -7.49999987	     29.82007746	      1.06094159	     -6.00266734	     27.13043074	      0.47351534	      5.60586978	     -2.81838082	     -7.49999987	     -0.03980715	     -0.83476691	      9.52722166	      3.58019984	    -11.03463513	      2.43517594	     23.47121265	     67.45055505	     -1.74253145	     -6.96137578	      1.24630519	     12.80602281	     65.78489658
